<svg width="534" height="426" viewBox="0 0 534 426" fill="none" xmlns="http://www.w3.org/2000/svg">
<g clip-path="url(#clip0_17_209)">
<path d="M533.168 135.403C533.168 141.151 531.261 146.937 527.336 151.774L485.781 202.989C480.524 209.467 472.788 212.836 464.978 212.836C459.147 212.836 453.275 210.956 448.367 207.086L400.084 169.059V385.701C400.084 407.731 382.209 425.59 360.159 425.59H173.841C151.799 425.59 133.916 407.723 133.916 385.701V169.059L84.9242 207.119C80.7237 210.941 74.8514 212.105 69.0206 212.105C61.2119 212.105 53.4747 208.733 48.2179 202.257L6.66402 151.774C2.73804 146.954 0.83136 141.137 0.83136 135.403C0.83136 127.706 4.25079 120.079 10.821 114.894L123.111 26.309C133.749 17.9741 146.975 13.4119 159.784 13.4119H188.48C194.885 51.1062 227.491 79.8921 267 79.8921C306.509 79.8921 339.14 51.1062 345.511 13.4119H373.459C387.059 13.4119 400.259 17.9741 410.881 26.3506L523.17 114.936C529.758 120.113 533.168 127.758 533.168 135.403Z" fill="black"/>
</g>
<defs>
<clipPath id="clip0_17_209">
<rect width="532.337" height="425.474" fill="white" transform="translate(0.831604 0.115784)"/>
</clipPath>
</defs>
</svg>
