<svg width="27" height="36" viewBox="0 0 27 36" fill="none" xmlns="http://www.w3.org/2000/svg">
<g clip-path="url(#clip0_17_207)">
<path d="M7.05263 8.28653C7.05263 4.06871 10.0191 0.649994 13.6842 0.649994C17.3493 0.649994 20.3158 4.06871 20.3158 8.28653V11.5593H24.1053C25.6743 11.5593 26.9474 13.0253 26.9474 14.8321V29.0143C26.9474 32.628 24.4013 35.5599 21.2632 35.5599H6.10526C2.96592 35.5599 0.421051 32.628 0.421051 29.0143V14.8321C0.421051 13.0253 1.69349 11.5593 3.26316 11.5593H7.05263V8.28653ZM9.89474 11.5593H17.4737V8.28653C17.4737 5.87625 15.7743 3.92279 13.6842 3.92279C11.5941 3.92279 9.89474 5.87625 9.89474 8.28653V11.5593ZM8.47368 18.1049C9.26118 18.1049 9.89474 17.3754 9.89474 16.4685C9.89474 15.5617 9.26118 14.8321 8.47368 14.8321C7.68618 14.8321 7.05263 15.5617 7.05263 16.4685C7.05263 17.3754 7.68618 18.1049 8.47368 18.1049ZM18.8947 14.8321C18.1072 14.8321 17.4737 15.5617 17.4737 16.4685C17.4737 17.3754 18.1072 18.1049 18.8947 18.1049C19.6822 18.1049 20.3158 17.3754 20.3158 16.4685C20.3158 15.5617 19.6822 14.8321 18.8947 14.8321Z" fill="white"/>
</g>
<defs>
<clipPath id="clip0_17_207">
<rect width="26.5263" height="34.9099" fill="white" transform="translate(0.421051 0.649994)"/>
</clipPath>
</defs>
</svg>
