<svg width="141" height="114" viewBox="0 0 141 114" fill="none" xmlns="http://www.w3.org/2000/svg">
<g clip-path="url(#clip0_17_189)">
<path d="M140.99 36.7675C140.99 38.2878 140.486 39.8183 139.447 41.0975L128.456 54.6438C127.066 56.3574 125.02 57.2484 122.954 57.2484C121.411 57.2484 119.858 56.7512 118.56 55.7276L105.789 45.6694V102.971C105.789 108.798 101.061 113.522 95.2292 113.522H45.9483C40.1182 113.522 35.3881 108.796 35.3881 102.971V45.6694L22.4298 55.7362C21.3188 56.7473 19.7656 57.055 18.2234 57.055C16.158 57.055 14.1115 56.1633 12.7211 54.4504L1.7301 41.0975C0.691686 39.8227 0.18737 38.2841 0.18737 36.7675C0.18737 34.7317 1.09181 32.7144 2.82962 31.3428L32.5302 7.9122C35.3441 5.70762 38.8422 4.50092 42.2302 4.50092H49.8204C51.5144 14.471 60.1385 22.0849 70.5887 22.0849C81.0389 22.0849 89.6697 14.471 91.3549 4.50092H98.747C102.344 4.50092 105.836 5.70762 108.645 7.92319L138.346 31.3538C140.088 32.7232 140.99 34.7453 140.99 36.7675Z" fill="black"/>
</g>
<defs>
<clipPath id="clip0_17_189">
<rect width="140.803" height="112.537" fill="white" transform="translate(0.187439 0.984131)"/>
</clipPath>
</defs>
</svg>
